<?xml version="1.0" standalone="no"?>
<!DOCTYPE svg PUBLIC "-//W3C//DTD SVG 20010904//EN"
 "http://www.w3.org/TR/2001/REC-SVG-20010904/DTD/svg10.dtd">
<svg version="1.0" xmlns="http://www.w3.org/2000/svg"
 width="257.000000pt" height="257.000000pt" viewBox="0 0 257.000000 257.000000"
 preserveAspectRatio="xMidYMid meet">
<metadata>
Created by potrace 1.11, written by Peter Selinger 2001-2013
</metadata>
<g transform="translate(0.000000,257.000000) scale(0.100000,-0.100000)"
fill="#000000" stroke="none">
<path d="M0 1285 l0 -1285 1285 0 1285 0 0 1285 0 1285 -1285 0 -1285 0 0
-1285z m901 434 c22 -11 48 -33 57 -50 24 -41 32 -36 32 22 l0 50 213 -3 214
-3 49 -30 c39 -25 56 -44 84 -99 33 -65 35 -74 35 -170 0 -111 -20 -173 -73
-229 -52 -55 -90 -67 -217 -67 l-115 0 0 -145 0 -145 -95 0 -95 0 0 140 0 140
-75 0 c-47 0 -78 5 -85 13 -6 6 -42 68 -79 137 l-68 125 26 9 c56 19 91 71 91
135 0 34 -7 48 -43 86 -36 37 -50 45 -80 45 l-37 0 0 -270 0 -270 -95 0 -95 0
0 300 0 300 205 0 c188 0 209 -2 246 -21z m829 11 c10 -6 80 -85 156 -178 75
-92 140 -168 145 -170 5 -2 9 76 9 177 l0 181 40 0 40 0 0 -280 c0 -264 -1
-281 -19 -299 -28 -28 -82 -36 -118 -17 -37 19 -63 48 -183 208 -52 70 -98
127 -102 127 -5 1 -8 -75 -8 -169 l0 -170 -45 0 -45 0 0 271 0 271 29 29 c31
30 67 37 101 19z m195 -999 c66 -38 91 -150 49 -222 -57 -98 -211 -97 -268 1
-35 60 -21 169 28 209 50 41 132 46 191 12z m-1133 -19 c15 -18 28 -44 28 -58
0 -37 -25 -78 -55 -92 l-27 -12 47 -55 47 -55 -29 0 c-22 0 -37 12 -72 55 -31
39 -51 55 -67 55 -22 0 -24 -4 -24 -55 0 -52 -1 -55 -25 -55 l-25 0 0 156 0
157 87 -5 c82 -4 87 -6 115 -36z m318 -119 c67 -151 68 -153 44 -153 -19 0
-29 8 -40 35 l-14 35 -83 0 -83 0 -17 -35 c-11 -23 -24 -35 -37 -35 -11 0 -20
3 -20 6 0 4 30 74 66 156 62 138 69 149 92 146 21 -3 33 -23 92 -155z m318
133 c36 -19 71 -82 72 -128 0 -48 -30 -106 -67 -129 -25 -16 -56 -23 -119 -27
l-84 -5 0 158 0 158 83 -5 c51 -3 95 -11 115 -22z m192 -131 l0 -155 -25 0
-25 0 0 155 0 155 25 0 25 0 0 -155z"/>
<path d="M1182 1448 l3 -233 25 -3 c160 -23 251 239 139 402 -31 46 -68 66
-123 66 l-46 0 2 -232z"/>
<path d="M945 1474 c-22 -23 -47 -43 -55 -46 -12 -4 -4 -27 40 -114 l55 -109
3 83 c2 46 2 115 0 155 l-3 72 -40 -41z"/>
<path d="M1793 705 c-89 -38 -81 -194 11 -225 28 -9 44 -9 72 0 94 31 100 188
9 226 -42 17 -51 17 -92 -1z"/>
<path d="M640 650 l0 -60 46 0 c64 0 84 13 84 55 0 43 -29 65 -87 65 l-43 0 0
-60z"/>
<path d="M982 628 l-31 -73 61 -3 c33 -2 62 -1 64 1 4 4 -49 133 -58 143 -3 3
-19 -28 -36 -68z"/>
<path d="M1280 596 l0 -116 41 0 c52 0 103 24 118 56 21 46 14 101 -17 135
-24 27 -37 33 -85 37 l-57 4 0 -116z"/>
</g>
</svg>
